<?xml version="1.0" encoding="UTF-8" standalone="no"?><!DOCTYPE svg PUBLIC "-//W3C//DTD SVG 1.1//EN" "http://www.w3.org/Graphics/SVG/1.1/DTD/svg11.dtd"><svg width="100%" height="100%" viewBox="0 0 1080 1080" version="1.1" xmlns="http://www.w3.org/2000/svg" xmlns:xlink="http://www.w3.org/1999/xlink" xml:space="preserve" xmlns:serif="http://www.serif.com/" style="fill-rule:evenodd;clip-rule:evenodd;stroke-linecap:round;stroke-linejoin:round;stroke-miterlimit:1.5;"><rect id="アートボード1" x="0" y="0" width="1080" height="1080" style="fill:none;"/><g id="アートボード11" serif:id="アートボード1"><g><path d="M444.262,751.94c-7.617,27.52 -29.464,115.018 -22.114,122.368c9.194,9.194 31.817,21.665 50.221,23.91c32.674,3.985 140.254,2.783 145.82,-0c8.303,-4.151 22.936,-10.211 26.585,-17.509c3.673,-7.346 6.877,-107.02 2.944,-135.853c-2.056,-15.078 -20.34,-30.949 -26.537,-37.146c-10.565,-10.565 -146.138,-5.717 -153.329,1.474c-3.906,3.906 -19.248,27.068 -23.59,42.756Z" style="fill:#fff923;stroke:#000;stroke-width:12.77px;"/><path d="M626.481,720.756c-1.732,14.826 8.619,54.84 12.651,80.425c3.84,24.363 8.531,64.595 11.544,73.084c2.431,6.847 30.493,19.293 31.047,8.571c1.394,-27.007 -22.996,-143.599 -32.203,-170.612c-2.642,-7.752 -22.089,0.398 -23.039,8.532Z" style="fill:#fff9b2;stroke:#000;stroke-width:12.77px;"/><path d="M236.383,448.41c-30.948,-5.935 -44.976,52.382 -44.694,77.086c0.502,43.93 80.985,83.212 88.744,56.807" style="fill:#fff9b2;stroke:#000;stroke-width:12.77px;"/><path d="M850.736,458.961c9.843,9.843 35.724,29.488 37.481,48.923c1.758,19.435 -20.75,63.486 -26.936,67.688c-38.774,26.34 -57.237,4.198 -57.237,-0" style="fill:#fff9b2;stroke:#000;stroke-width:12.77px;"/><path d="M264.526,308.984c51.631,-109.31 124.848,-159.547 280.05,-171.641c99.737,-7.772 200.562,38.758 263.981,138.633c144.513,227.589 -116.91,470.98 -263.981,468.867c-163.814,-2.354 -386.612,-210.253 -280.05,-435.859Z" style="fill:#fff9b2;stroke:#000;stroke-width:12.77px;"/><path d="M519.552,359.946c7.84,81.064 -66.159,132.748 -101.855,136.937c-35.697,4.188 -122.949,-68.325 -112.324,-111.804c20.165,-82.52 79.429,-120.099 118.304,-111.803c46.43,9.909 93.324,60.289 95.875,86.67Z" style="fill:#fff;stroke:#000;stroke-width:12.77px;"/><path d="M584.285,353.916c1.905,-29.835 27.101,-60.334 58.549,-67.942c11.735,-2.839 71.65,-10.356 94.841,6.082c23.192,16.438 44.556,59.884 44.306,92.547c-0.25,32.664 -19.696,77.326 -45.803,103.433c-8.976,8.976 -80.836,20.884 -106.151,-1.469c-25.316,-22.354 -47.877,-99.219 -45.742,-132.651Z" style="fill:#fff;stroke:#000;stroke-width:12.77px;"/><path d="M523.876,488.866c-0,8.778 -9.355,36.946 -4.466,41.836c14.456,14.456 36.063,22.82 58.883,-0c11.71,-11.711 1.469,-30.937 1.469,-43.452" style="fill:none;stroke:#000;stroke-width:12.77px;"/><path d="M436.891,659.057c18.559,6.359 204.078,11.274 222.622,5.898c18.544,-5.376 -74.252,-37.169 -111.356,-38.152c-37.104,-0.983 -129.826,25.896 -111.266,32.254Z" style="fill:#e7505a;stroke:#000;stroke-width:12.77px;"/><path d="M494.308,658.549c8.986,3.079 98.807,5.458 107.785,2.856c8.979,-2.603 -35.95,-17.996 -53.914,-18.472c-17.965,-0.476 -62.857,12.538 -53.871,15.616Z" style="fill:#992027;"/><path d="M702.268,395.154c-17.451,0 -11.465,-11.794 -4.423,-11.794c3.813,-0 7.832,11.794 2.949,11.794" style="stroke:#000;stroke-width:12.77px;"/><path d="M401.507,393.68c0,0 4.206,-20.858 14.743,-10.32c0.737,0.736 4.524,13.168 2.949,14.743c-3.797,3.797 -15.686,-4.423 -17.692,-4.423Z" style="stroke:#000;stroke-width:12.77px;"/><path d="M235.191,440.87c-53.46,-78.719 -6.756,-243.364 69.097,-321.217c67.147,-68.918 163.261,-81.775 244.718,-93.042c92.509,-12.796 192.238,52.71 247.774,122.842c51.056,64.477 112.578,259.476 51.446,309.097c-11.356,9.218 -6.383,-138.75 -73.166,-224.072c-56.289,-71.914 -180.016,-89.249 -227.389,-91.26c-46.257,-1.963 -160.146,12.811 -220.888,79.032c-75.27,82.058 -85.702,227.293 -91.592,218.62Z" style="fill:#580000;stroke:#000;stroke-width:12.77px;"/><path d="M430.994,716.556c-14.99,45.996 -44.97,137.988 -31.284,151.675c1.229,1.228 15.457,22.056 21.258,16.255c19.38,-19.379 17.446,-64.751 23.294,-91.265c4.943,-22.407 9.511,-52.682 11.795,-67.819" style="fill:#fff9b2;stroke:#000;stroke-width:12.77px;"/><path d="M430.994,881.68c-0,-0 -13.034,85.361 12.865,111.261c7.117,7.117 63.198,11.271 91.23,11.624c25.849,0.325 63.246,4.21 76.966,-9.51c17.154,-17.154 22.395,-106.004 22.395,-106.004c-0,0 0.491,0 -0,0c-32.986,0 -69.062,11.725 -97.604,11.725c-10.28,-0 -92.128,-19.096 -105.852,-19.096Z" style="fill:#130635;stroke:#000;stroke-width:12.77px;"/><path d="M436.891,970.139c-1.378,5.431 -12.023,27.824 -16.233,39.897c-3.706,10.628 -12.428,29.137 -9.026,32.539c7.862,7.862 88.304,4.745 106.536,4.745c-0,0 14.672,-0.753 20.451,-12.311c6.057,-12.115 1.482,-45.696 -4.423,-51.601c-0.235,-0.236 -4.415,-1.463 -4.423,-1.475c-8.94,-12.943 -87.692,-32.256 -92.882,-11.794Z" style="fill:#d9d9d9;stroke:#000;stroke-width:12.77px;"/><path d="M535.089,983.275c24.192,-16.934 89.854,-23.419 91.198,-22.075c5.664,5.664 51.446,78.289 23.233,86.025c-4.886,1.34 -56.965,6.72 -57.66,7.415c-2.366,2.366 -57.794,-6.901 -57.794,-28.292l1.023,-43.073Z" style="fill:#d9d9d9;stroke:#000;stroke-width:12.77px;"/></g></g></svg>